<svg class="neon-layer" viewBox="0 0 4096 4096" preserveAspectRatio="xMidYMid slice" aria-hidden="true">
<defs><filter id="glow" x="-50%" y="-50%" width="200%" height="200%"><feGaussianBlur stdDeviation="9" result="b"/><feMerge><feMergeNode in="b"/><feMergeNode in="SourceGraphic"/></feMerge></filter></defs>
<g filter="url(#glow)">
<path d="M2396 2815.02 c-4.9 .62 -7.92 1.97 -10 4.48 -1.14 1.37 -1.03 1.92 .72 3.67&#xA;1.58 1.58 2.47 1.82 3.87 1.05 1.19 -.66 2.66 -.69 4.3 -.06 3.14 1.19 12.88&#xA;.1 15.86 -1.78 2.5 -1.58 2.89 -3.59 1 -5.16 -1.93 -1.6 -10.75 -2.82 -15.75&#xA;-2.19z M2355.14 3068.49 c-5.15 1.27 -10 2.94 -10.77 3.72 -.78 .78 -1.68&#xA;3.66 -2.01 6.41 -.52 4.4 -.28 5.35 1.97 7.94 l2.57 2.94 6.12 -6.74 c4.81&#xA;-5.3 7.11 -7.03 10.75 -8.09 5.34 -1.56 7.28 -3.77 5.62 -6.42 -1.53 -2.43&#xA;-3.54 -2.4 -14.25 .24z M2352.46 3078.05 c-5.06 5.15 -6.44 5 -5.05 -.57 .45&#xA;-1.79 1.61 -2.59 4.84 -3.31 2.34 -.52 4.45 -1 4.71 -1.06 .25 -.06 -1.77&#xA;2.16 -4.5 4.94z" fill="#aacdd2" fill-rule="evenodd" stroke="none" class="lit g0"/>
<path d="M333.2 3475.2 c-.66 .66 -1.2 3.62 -1.2 6.57 0 5.07 .28 5.66 4.92 10.53 4.87&#xA;5.11 4.94 5.14 7 3.27 1.45 -1.31 1.78 -2.24 1.08 -3.08 -.69 -.83 -.64 -2.24&#xA;.18 -4.6 .65 -1.87 1.88 -3.96 2.75 -4.66 1.39 -1.11 1.17 -1.61 -1.89 -4.25&#xA;-1.9 -1.64 -4.49 -2.99 -5.75 -2.99 -1.26 0 -2.29 -.45 -2.29 -1 0 -1.39&#xA;-3.35 -1.25 -4.8 .2z" fill="#fad3c3" fill-rule="evenodd" stroke="#f69e7b" stroke-linejoin="round" stroke-width="0.80" class="lit g1"/>
<path d="M4003.42 806.41 c3.47 3.24 5.77 4.59 7.78 4.59 3.24 0 4.65 -2.27 2.79 -4.51&#xA;-1.19 -1.43 -4.66 -2.59 -12 -4.01 l-3.5 -.68 4.92 4.59z" fill="#f5b3c2" fill-rule="evenodd" stroke="none" class="lit g2"/>
<path d="M3949.17 1223.31 c-3.62 3.85 -2.81 6.87 3.83 14.35 3.3 3.72 6 7.11 6 7.55 0&#xA;.43 2.15 .79 4.78 .79 5.2 0 9.22 -2.1 9.22 -4.81 -0 -.93 -1.83 -4.39 -4.06&#xA;-7.69 -2.23 -3.3 -4.44 -6.92 -4.9 -8.06 -.58 -1.42 -2.43 -2.42 -6.01 -3.25&#xA;-2.85 -.66 -5.51 -1.19 -5.92 -1.19 -.41 0 -1.73 1.04 -2.92 2.31z" fill="#9ef8ed" fill-rule="evenodd" stroke="none" class="lit g3"/>
<path d="M3357.5 3230.77 c-1.65 .86 -3.48 2.2 -4.06 2.99 -.64 .87 -.98 6.46 -.85&#xA;14.22 .16 9.93 .58 13.35 1.86 15.3 .91 1.38 2.95 3.05 4.53 3.71 1.61 .67&#xA;4.22 .9 5.92 .53 2.43 -.53 3.14 -1.3 3.58 -3.84 .86 -5.01 .88 -15.58 .05&#xA;-22.68 -.65 -5.55 -1.22 -6.9 -3.9 -9.25 -1.72 -1.51 -3.36 -2.7 -3.64 -2.64&#xA;-.28 .06 -1.85 .81 -3.5 1.66z" fill="#fad3c3" fill-rule="evenodd" stroke="none" class="lit g4"/>
<path d="M1002.5 1937.83 c-.24 .24 .08 1.38 .71 2.55 .62 1.17 1.06 2.23 .96 2.37&#xA;-.66 .97 .03 3.25 .83 2.75 .7 -.43 1 -.3 1 .44 0 .58 -.45 1.06 -1 1.06 -.55&#xA;0 -1 .7 -1 1.56 0 .86 -.4 1.31 -.89 1.01 -.49 -.3 -1.5 .2 -2.25 1.11 -1.2&#xA;1.46 -1.12 1.6 .67 1.14 1.12 -.29 2.64 .13 3.39 .93 2.48 2.66 -.18 3.26&#xA;-14.67 3.34 -1.79 .01 -3.81 -.03 -4.5 -.1 -2.28 -.21 -4.81 .62 -4.79 1.57&#xA;.01 .52 .81 1 1.78 1.07 .97 .07 2.21 .26 2.76 .41 .55 .15 1.79 -.07 2.75&#xA;-.49 .96 -.42 2.83 -.5 4.14 -.17 1.82 .46 2.48 1.42 2.79 4.06 .3 2.54 .1&#xA;3.2 -.76 2.5 -.78 -.65 -1.62 -.41 -2.54 .71 -1.12 1.36 -1.15 1.75 -.13 2.1&#xA;1.39 .47 1.69 7.02 .4 9.04 -.45 .71 -1.52 1.01 -2.38 .68 -1.79 -.69 -2.96&#xA;-7.36 -1.6 -9.1 .58 -.74 .48 -2.04 -.3 -3.75 -1.53 -3.37 -3.3 -3.48 -2.47&#xA;-.16 .55 2.17 .22 2.53 -2.79 3.09 -5.99 1.12 -7.14 .44 -6.76 -4.02 .19&#xA;-2.17 1.06 -4.47 1.93 -5.11 1.41 -1.03 1.34 -1.24 -.59 -1.86 -2.62 -.83&#xA;-5.08 .27 -3.19 1.44 2.05 1.27 .23 8.98 -2.35 9.94 -3.17 1.18 -4.65 .21&#xA;-4.65 -3.04 0 -1.88 -.51 -2.89 -1.48 -2.89 -1.12 0 -1.32 .76 -.84 3.15 l.63&#xA;3.15 -4.16 -.56 c-2.33 -.31 -4.4 -.16 -4.71 .35 -.31 .5 -1.61 .9 -2.9 .9&#xA;-1.97 0 -2.39 .59 -2.69 3.75 -.38 4.05 -.71 6 .83 6.89 1.55 .89 4.97 .73&#xA;12.1 .56 11.47 -.27 34.02 -.21 38.46 .1 1.01 .07 1.75 .93 1.75 2.02 0 1.52&#xA;-.49 1.77 -2.5 1.27 -1.47 -.37 -2.5 -.26 -2.5 .27 0 .52 -1.34 .61 -3.25 .2&#xA;-1.95 -.41 -4.51 -.17 -6.4 .6 -2.64 1.08 -3.33 1.07 -4.29 -.08 -.93 -1.12&#xA;-1.77 -1.17 -4.71 -.27 -3.06 .94 -3.76 .84 -4.87 -.66 -.71 -.97 -1.56 -1.33&#xA;-1.88 -.8 -.87 1.4 -21.59 1.19 -21.63 -.22 -.02 -.62 -.49 -.34 -1.04 .62&#xA;-1.34 2.31 .31 5.36 3.3 6.08 1.25 .3 13.03 .39 26.17 .2 17.48 -.26 24.09&#xA;-.68 24.65 -1.58 .42 -.68 1.51 -.94 2.43 -.59 1.55 .59 1.65 -1.31 1.33&#xA;-24.6 l-.35 -25.25 -2.76 -.05 c-1.52 -.03 -2.96 .15 -3.19 .38z" fill="#eec1d3" fill-rule="evenodd" stroke="none" class="lit g0"/>
<path d="M3103.62 2695.71 c-.38 .38 -1.69 .75 -2.91 .81 -7.28 .37 -8.17 .54 -6.88&#xA;1.36 1.01 .64 .83 .98 -.75 1.39 -1.28 .33 -2.08 1.36 -2.08 2.64 0 1.15 -.34&#xA;2.1 -.75 2.1 -.41 0 -1.22 1.02 -1.79 2.25 l-1.04 2.24 29.45 -.29 c26.49&#xA;-.26 29.71 -.47 32.04 -2.1 3.05 -2.13 9.09 -3.53 9.09 -2.11 0 .6 1.01 .77&#xA;2.75 .45 1.51 -.27 3.75 -.63 4.97 -.78 1.22 -.16 2.54 -.6 2.92 -.98 1.05&#xA;-1.05 2.57 -.85 1.9 .25 -.86 1.39 3.48 1.01 7.24 -.63 1.8 -.79 4.22 -1.13&#xA;5.38 -.76 1.54 .49 1.94 .4 1.49 -.32 -.43 -.69 .71 -.83 3.83 -.48 2.44 .27&#xA;5.18 .21 6.09 -.14 1.49 -.57 1.53 -.79 .42 -2.12 -1.39 -1.68 -3.48 -2.09&#xA;-2.49 -.49 .4 .65 .28 1 -.36 1 -.54 0 -1.14 -.51 -1.35 -1.13 -.25 -.76&#xA;-6.19 -1.24 -18.33 -1.48 -30.1 -.59 -60.35 -.58 -61.35 .04 -.52 .32 -1.17&#xA;.02 -1.45 -.67 -.42 -1.04 -.68 -1.01 -1.51 .18 -.83 1.19 -1.24 1.24 -2.42&#xA;.26 -.78 -.65 -1.73 -.87 -2.11 -.48z" fill="#f9b9d4" fill-rule="evenodd" stroke="none" class="lit g1"/>
<path d="M3130.5 2774.87 c-2.61 .55 -3.04 1.13 -3.31 4.38 -.4 4.88 -1.4 4.74 -3.38&#xA;-.5 l-1.6 -4.25 .27 11.5 c.26 10.96 .38 11.56 2.64 12.74 2.08 1.09 2.59 .97&#xA;4.17 -1 .99 -1.23 3.15 -3.67 4.8 -5.4 1.86 -1.95 2.6 -3.41 1.94 -3.82 -.61&#xA;-.37 -.81 -1.07 -.48 -1.61 .32 -.52 1 -.69 1.52 -.37 .51 .32 .93 .21 .93&#xA;-.24 0 -.45 1.57 -2.62 3.48 -4.81 1.91 -2.19 3.49 -4.27 3.5 -4.62 .01 -.35&#xA;-1.43 -.56 -3.2 -.47 -2.77 .14 -3.6 .85 -5.91 5.13 -1.48 2.73 -2.73 5.87&#xA;-2.78 6.97 -.11 2.38 -3.98 7.3 -6.06 7.71 -1.17 .23 -1.49 -1.01 -1.54 -5.96&#xA;-.04 -3.44 .29 -6.25 .72 -6.25 .44 0 .79 .68 .79 1.5 0 .82 .38 1.5 .83 1.5&#xA;1.63 0 2.08 -1.29 1.1 -3.13 -.57 -1.07 -.62 -1.87 -.13 -1.87 .48 0 1.37&#xA;-1.09 1.97 -2.41 .6 -1.33 2.03 -2.71 3.18 -3.07 1.82 -.58 2.03 -2.7 .24&#xA;-2.4 -.38 .07 -2.04 .4 -3.69 .75z" fill="#edbbd1" fill-rule="evenodd" stroke="none" class="lit g2"/>
<path d="M3233.36 2775.2 c-.96 1.52 -1.07 1.96 -1.23 5.27 -.09 1.79 -.55 2.31 -1.67&#xA;1.87 -.87 -.33 -2.09 .14 -2.77 1.08 -.97 1.32 -1.75 1.47 -3.7 .69 l-2.48&#xA;-.99 2 -.1 2 -.1 -2.4 -1.33 c-1.76 -.97 -2.03 -1.48 -1 -1.89 .9 -.36 .65&#xA;-.58 -.68 -.63 -3.18 -.12 -3.55 .93 -1.39 3.96 2.35 3.31 2.51 4.96 .47 4.96&#xA;-2.18 0 -1.85 .93 1.18 3.36 4.18 3.34 5.34 3.44 8.44 .73 2.07 -1.82 2.88&#xA;-3.45 2.88 -5.8 0 -1.8 .5 -3.28 1.12 -3.28 .66 0 .92 -1.05 .63 -2.54 -.43&#xA;-2.23 -.29 -2.38 1.13 -1.23 .89 .72 2.52 1.29 3.62 1.28 1.55 -.01 2 -.69 2&#xA;-3.02 0 -2.73 -.33 -3.03 -3.66 -3.3 -2.21 -.18 -3.98 .21 -4.48 1z" fill="#e0b9c8" fill-rule="evenodd" stroke="none" class="lit g3"/>
<path d="M3255.56 2901.91 c-.31 .5 -.28 1.64 .06 2.54 .35 .91 -.14 2.47 -1.12 3.55&#xA;-2.63 2.9 -3.2 10.57 -.98 13.03 .98 1.09 1.38 2.02 .88 2.08 -2.66 .29 4.88&#xA;1.72 9.55 1.8 4.24 .08 5.18 -.17 4.25 -1.1 -1.59 -1.59 -1.52 -2.8 .18 -2.8&#xA;.76 0 1.66 -1.41 2 -3.12 .89 -4.43 .73 -5.66 -.47 -3.6 -1.85 3.18 -3.11 .87&#xA;-2.39 -4.38 .54 -3.96 .39 -4.89 -.81 -4.89 -1.67 0 -3.13 4.44 -2.08 6.3 .38&#xA;.66 -.65 -.03 -2.27 -1.55 -1.63 -1.51 -3.53 -2.75 -4.23 -2.75 -2.65 0 1.71&#xA;-3 4.55 -3.14 1.19 -.06 1.81 -.11 1.89 -.19 .08 -.08 -.38 -.2 -1.33 -.38&#xA;-1.25 -.24 -2.01 -.85 -1.69 -1.36 .32 -.51 -.78 -.93 -2.43 -.93 -1.65 0&#xA;-3.25 .41 -3.56 .91z" fill="#f8cfca" fill-rule="evenodd" stroke="none" class="lit g4"/>
<path d="M3511.92 2965.75 c-.04 1.51 -.31 2.19 -.58 1.5 -.81 -2.02 -2.07 -1.44 -2.75&#xA;1.25 -.35 1.38 -1.1 2.5 -1.67 2.5 -.72 0 -.87 .28 -.48 .91 .31 .5 1.46 .67&#xA;2.56 .38 2.68 -.7 2.54 1.22 -.22 3.15 -2.86 2 -3.37 1.96 -5.78 -.44 -1.41&#xA;-1.41 -2 -1.59 -2 -.62 0 .76 -.82 1.6 -1.83 1.86 -1.47 .38 -2.08 -.44 -3.07&#xA;-4.13 l-1.24 -4.61 -1.47 3.46 c-1.39 3.27 -1.35 3.56 .71 5.11 1.47 1.11 1.8&#xA;1.87 1.03 2.35 -.63 .39 -1.41 .01 -1.74 -.85 -.55 -1.44 -.81 -1.41 -3.3 .37&#xA;-3.73 2.66 -7.67 3.54 -8.66 1.93 -1.17 -1.89 -.84 -10.22 .5 -12.72 .99&#xA;-1.85 .95 -2.15 -.25 -2.15 -2.77 0 -3.79 15.36 -1.08 16.39 2.32 .89 7.3 .74&#xA;9.23 -.28 .93 -.49 6.18 -1.2 11.68 -1.59 5.75 -.4 10.31 -1.19 10.73 -1.86&#xA;.82 -1.29 1.06 -14.66 .27 -14.66 -.28 0 -.54 1.24 -.58 2.75z" fill="#facdca" fill-rule="evenodd" stroke="none" class="lit g0"/>
<path d="M3490.5 3013 c-1.1 .47 -1.66 .89 -1.25 .93 .99 .09 -3 4.07 -4.09 4.07 -.73&#xA;0 -3.16 4.27 -3.16 5.55 0 .85 11.49 .43 12.91 -.47 .92 -.58 1.91 -.4 2.82&#xA;.52 1.64 1.64 12.26 .86 13.5 -.99 1.46 -2.19 .81 -4.48 -1.23 -4.32 -1.1 .08&#xA;-2 .53 -2 1 0 .47 -.47 .56 -1.04 .2 -.57 -.35 -.81 -1.39 -.52 -2.31 .41&#xA;-1.3 -.72 -2.05 -5.21 -3.43 -6.25 -1.93 -7.71 -2.03 -10.73 -.73z" fill="#f4c0c7" fill-rule="evenodd" stroke="none" class="lit g1"/>
<path d="M3479.75 3029.2 c-.27 1.81 -.11 4.31 .35 5.55 .61 1.63 .55 2.25 -.25 2.25&#xA;-.8 0 -.74 .44 .22 1.59 1.23 1.49 1.4 1.48 2.61 -.17 1.06 -1.45 1.71 -1.56&#xA;3.75 -.64 1.36 .62 6.87 1.12 12.25 1.12 6.31 0 9.92 .4 10.16 1.12 .21 .62&#xA;1.01 .2 1.82 -.96 1.7 -2.43 .88 -4.49 -1.43 -3.61 -2.54 .97 -25.39 .78&#xA;-26.4 -.22 -.56 -.56 -.28 -1.46 .74 -2.31 1.25 -1.03 5.3 -1.39 16.04 -1.4&#xA;7.91 -.01 14.37 -.25 14.36 -.52 -.08 -2.58 -2.45 -3.19 -13.81 -3.54 -7.04&#xA;-.22 -12.36 .03 -12.7 .58 -.89 1.44 -3.6 1.15 -5.52 -.59 -1.57 -1.42 -1.75&#xA;-1.29 -2.2 1.75z" fill="#f4bfc5" fill-rule="evenodd" stroke="none" class="lit g2"/>
<path d="M2668.02 3104.43 c.03 41.57 .38 61.57 1.07 61.57 .57 0 .8 -.38 .51 -.84&#xA;-.29 -.46 .39 -2.53 1.5 -4.6 1.72 -3.21 1.81 -3.93 .6 -4.91 -2.27 -1.85&#xA;-2.79 -4.42 -.87 -4.28 1.98 .15 4.22 2.73 3.46 3.97 -.87 1.4 -1.07 13.67&#xA;-.23 14.18 .42 .26 .52 1.41 .22 2.55 -.36 1.4 -.79 1.69 -1.28 .89 -.43 -.69&#xA;-1.61 -.91 -2.82 -.53 -1.66 .53 -1.91 1.1 -1.24 2.86 .46 1.21 .86 2.64 .88&#xA;3.17 .1 2.09 2.19 1.56 2.19 -.56 0 -1.24 .28 -1.97 .63 -1.62 .35 .35 .68&#xA;4.69 .75 9.66 .09 6.39 -.24 9.17 -1.13 9.51 -.81 .31 -1.25 .14 -1.25 -.49 0&#xA;-.53 .39 -.97 .87 -.97 .49 0 .53 -1.86 .09 -4.25 -.43 -2.34 -.78 -4.46 -.79&#xA;-4.72 -.01 -.26 -.52 -.65 -1.15 -.85 -1.57 -.52 -1.21 29.02 .37 30.08 .82&#xA;.55 .82 .95 .02 1.5 -.63 .43 -1.15 4.35 -1.22 9.25 -1.29 87.74 -1.32 97.2&#xA;-.28 96.56 .61 -.37 1.1 -1.33 1.1 -2.12 0 -.79 .44 -1.44 .97 -1.44 .62 0&#xA;.77 -.62 .42 -1.75 -.26 -.82 -.37 -1.23 -.24 -1.22 .13 .01 .5 .45 1.21 1.32&#xA;.84 1.02 2.02 1.69 2.63 1.49 .68 -.23 .38 -1.15 -.77 -2.38 -1.03 -1.11&#xA;-1.88 -2.71 -1.88 -3.57 0 -2.05 2.63 -2.02 2.78 .03 .07 .87 .46 .23 .88&#xA;-1.42 l.76 -3 .12 2.58 c.07 1.42 .41 2.88 .78 3.24 .79 .79 3.34 -1.16 3.34&#xA;-2.57 0 -.67 -.5 -.59 -1.5 .24 -1.65 1.37 -1.82 .56 -.5 -2.5 .47 -1.1 .89&#xA;-1.44 .93 -.75 .04 .69 .51 1.25 1.04 1.25 .62 0 .76 -.53 .39 -1.5 -.36 -.94&#xA;.01 -1.5 1 -1.5 2.02 0 4.36 -3.95 2.43 -4.1 -.71 -.05 -.19 -.41 1.16 -.78&#xA;l2.44 -.68 -2.44 -2.37 c-1.34 -1.3 -1.93 -2.08 -1.3 -1.72 .63 .35 1.41 -.06&#xA;1.74 -.92 .33 -.86 1.05 -1.28 1.6 -.94 .65 .4 1.01 .28 1.01 -.35 0 -.54&#xA;-.47 -1.13 -1.04 -1.32 -1.19 -.4 -1.36 -2.94 -.5 -7.32 .32 -1.65 .88 -5.7&#xA;1.23 -9 1.3 -12.18 .78 -164.23 -.71 -208 -.68 -19.92 -1.01 -12.53 -1.59 35&#xA;-.65 53.84 -1.19 64.15 -3.45 65.54 -.85 .53 -.8 1.2 .22 2.82 .73 1.17 1.65&#xA;2.13 2.04 2.13 .39 0 .24 1.35 -.34 3 -.58 1.65 -1.48 3 -2.01 3 -.61 0 -.75&#xA;-.34 -.39 -.93 .32 -.51 .17 -1.18 -.33 -1.49 -.5 -.31 -1.14 .34 -1.42 1.43&#xA;-.29 1.09 -.06 1.99 .51 1.99 .71 0 .64 .47 -.22 1.5 -1.05 1.27 -1.03 1.52&#xA;.13 1.62 .75 .07 1.71 .07 2.12 0 .41 -.07 .75 .6 .75 1.49 0 1.02 -.55 1.4&#xA;-1.5 1.03 -1.05 -.4 -1.5 .08 -1.52 1.64 -.01 1.22 -.45 2.89 -.98 3.72 -.72&#xA;1.11 -.97 .5 -.98 -2.36 -.01 -3.24 -.3 -3.76 -1.77 -3.25 -.83 .29 -1.25 .43&#xA;-1.25 .33 0 -.1 .42 -.43 1.25 -1.08 2.18 -1.7 2.28 -3.06 .18 -2.25 -1.12&#xA;.43 -1.48 .1 -1.24 -1.14 .18 -.96 1.01 -1.75 1.82 -1.75 .82 0 1.44 -.56&#xA;1.39 -1.25 -.3 -3.78 -.5 -4.15 -1.9 -3.61 -1.14 .44 -1.5 -.18 -1.5 -2.56 0&#xA;-1.87 .61 -3.37 1.5 -3.71 2.06 -.79 1.89 -5.03 -.25 -6.28 -1.67 -.97 -1.67&#xA;-1.02 0 -1.05 1.32 -.02 1.73 -.82 1.65 -3.28 -.05 -1.5 -.08 -2.27 -.19&#xA;-2.37 -.11 -.1 -.29 .46 -.61 1.62 -.64 2.28 -.81 2.1 -1.85 -1.96 -.72 -2.81&#xA;-.81 -4.86 -.24 -5.55 1.21 -1.46 .83 -5.61 -.47 -5.17 -.57 .19 -1.04 .98&#xA;-1.04 1.76 0 1.74 -1.45 2.88 -3.69 2.9 -1.08 .01 -1.63 -.71 -1.54 -1.98 .08&#xA;-1.1 .56 -2 1.06 -2 .55 0 .41 -.6 -.34 -1.5 -.96 -1.15 -.97 -1.5 -.06 -1.5&#xA;.65 0 .92 -.42 .61 -.93 -.32 -.51 -.12 -1.21 .44 -1.56 .56 -.35 1.02 -1.08&#xA;1.02 -1.63 0 -.67 -.33 -.79 -1 -.38 -.7 .43 -1 .3 -1 -.44 0 -.58 .56 -1.07&#xA;1.25 -1.07 1 -.01 .98 -.19 -.11 -.88 -1.07 -.68 -1.12 -1.01 -.23 -1.55 .73&#xA;-.45 .87 -1.11 .39 -1.88 -1.27 -2.05 -1.25 -16.09 .03 -17 .92 -.66 .9 -.94&#xA;-.09 -1.34 -.69 -.28 -1.03 -.88 -.74 -1.34 .28 -.46 .07 -1.99 -.47 -3.41&#xA;-.59 -1.54 -.62 -2.58 -.08 -2.58 .54 0 .57 -1.18 .07 -2.92 -.46 -1.61 -.59&#xA;-3.17 -.3 -3.47 .3 -.3 .55 -7.74 .55 -16.54 .01 -8.8 .4 -15.76 .87 -15.47&#xA;.56 .34 .85 .19 .85 -.45 0 -.54 -.45 -1.13 -1 -1.31 -1.01 -.34 -1.29 -4.86&#xA;-.78 -12.58 .15 -2.34 -.11 -4.25 -.59 -4.25 -.5 0 -.62 -1.27 -.28 -2.96 .36&#xA;-1.79 .2 -3.2 -.39 -3.57 -.64 -.39 -.97 20.98 -.94 60.96z" fill="#e9b6cd" fill-rule="evenodd" stroke="none" class="lit g3"/>
<path d="M3108.21 3271.82 l-3.29 .32 .29 8.18 c.23 6.44 .61 8.18 1.78 8.18 .82 0&#xA;1.65 .85 1.85 1.9 .27 1.42 -.05 1.74 -1.3 1.26 -1.33 -.51 -1.53 -.22 -1.01&#xA;1.43 .43 1.37 .08 2.49 -1.04 3.31 -1.99 1.46 -1.62 5.11 .52 5.11 .81 0 1.64&#xA;-.87 1.84 -1.93 .2 -1.06 1.28 -2.66 2.4 -3.57 1.64 -1.33 1.82 -2.03 .95&#xA;-3.65 -.94 -1.75 -.79 -1.98 1.12 -1.77 1.21 .13 2.75 .28 3.43 .33 .68 .05&#xA;1.13 1.1 1 2.33 -.21 2.01 .25 2.27 4.26 2.47 3.85 .19 4.15 .08 2.07 -.78&#xA;l-2.43 -1.01 2.18 -1.52 c1.2 -.84 2.18 -2 2.18 -2.59 0 -.75 -.44 -.7 -1.5&#xA;.18 -.82 .68 -1.53 1.08 -1.57 .87 -.66 -3.57 -.61 -5.95 .14 -6.42 .61 -.38&#xA;.93 -.24 .93 .41 0 .65 1.1 .67 3.24 .06 4.5 -1.29 4.75 -1.22 4.77 1.32 .01&#xA;1.7 .23 1.91 .9 .85 .58 -.92 .9 .4 .93 3.86 .02 2.89 .33 5.55 .69 5.9 .36&#xA;.35 .54 -2.96 .42 -7.36 -.13 -4.4 .09 -8.74 .48 -9.65 .39 -.91 .57 -3.16&#xA;.39 -5 l-.32 -3.35 -11.5 0 c-6.32 0 -12.98 .14 -14.79 .32z" fill="#f0c6c7" fill-rule="evenodd" stroke="none" class="lit g4"/>
<path d="M3229.33 3275.89 c-2.12 1.54 -3.41 8.26 -2.75 14.33 1.01 9.26 1.46 9.79 8.2&#xA;9.68 6.12 -.1 10.48 -2.04 9.63 -4.27 -.29 -.75 .06 -1.99 .78 -2.75 1.9&#xA;-2.01 1.4 -11.98 -.69 -13.5 -.89 -.65 -1.22 -1.44 -.72 -1.75 .5 -.31 1.88&#xA;.34 3.06 1.44 2.14 2 2.15 2 2.15 .02 0 -1.09 -.53 -2.31 -1.18 -2.71 -1.46&#xA;-.9 -17.35 -1.34 -18.5 -.5z" fill="#eccdbb" fill-rule="evenodd" stroke="none" class="lit g0"/>
<path d="M2184.22 3434.02 c-.71 1.13 -1.72 1.79 -2.25 1.46 -.53 -.33 -.97 .1 -.97&#xA;.96 0 .86 -.45 1.56 -1 1.56 -.55 0 -1 -.9 -1 -2 0 -1.1 -.39 -2 -.86 -2 -.47&#xA;0 -.95 3.64 -1.05 8.08 l-.19 8.08 2.72 -.33 c1.58 -.19 2.9 .21 3.15 .96 .32&#xA;.94 -.28 1.11 -2.16 .64 -2.45 -.61 -2.6 -.43 -2.71 3.21 -.06 2.12 -.19 4.53&#xA;-.28 5.36 -.09 .82 .24 2.34 .72 3.38 .68 1.46 .58 2.07 -.47 2.75 -1.03 .66&#xA;-1.11 1.05 -.35 1.62 1.81 1.36 2.98 10.83 1.46 11.77 -.55 .34 -.45 1.51 .27&#xA;3.09 .9 1.97 .88 2.98 -.07 4.5 -.68 1.08 -.96 2.4 -.64 2.93 .33 .53 -.11&#xA;.96 -.97 .96 -.86 0 -1.56 .5 -1.56 1.11 0 .61 .64 .86 1.42 .56 .78 -.3 1.68&#xA;.13 1.99 .96 .43 1.13 .09 1.35 -1.41 .87 -2.5 -.79 -4.81 .38 -2.98 1.51 .68&#xA;.42 .91 1.29 .52 1.92 -.56 .9 -1.07 .87 -2.32 -.14 -1.37 -1.11 -1.5 -1.04&#xA;-.92 .5 .46 1.23 .38 1.62 -.24 1.24 -1.11 -.69 -6.06 1.45 -6.06 2.62 0 1.12&#xA;1.37 1.06 2.55 -.11 .6 -.6 .95 .1 .95 1.9 0 1.57 -.34 2.64 -.76 2.39 -.42&#xA;-.26 -1.41 .18 -2.2 .97 -1.17 1.17 -1.42 5.22 -1.3 21.54 .08 11.05 -.06&#xA;20.29 -.3 20.53 -.69 .68 -14.8 1.76 -21.28 1.62 -3.83 -.08 -5.62 .24 -5.2&#xA;.92 .54 .87 .38 .94 -.96 .43 -1.33 -.51 -1.48 -.12 -.91 2.26 .38 1.58 1.01&#xA;3.55 1.4 4.38 .39 .82 .53 2.96 .31 4.75 -.46 3.64 .06 3.83 6.03 2.18 2.86&#xA;-.79 3.68 -1.46 3.23 -2.64 -.59 -1.55 -.58 -1.55 .78 -.43 2.06 1.71 14.69&#xA;-4.9 19.02 -9.96 1.91 -2.23 4.85 -7.82 6.68 -12.7 3.19 -8.51 7.62 -14.39&#xA;13.47 -17.9 1.35 -.81 1.64 -1.46 .89 -2 -.61 -.44 -1.42 -2.49 -1.8 -4.55&#xA;-.38 -2.06 -1.09 -3.75 -1.58 -3.75 -.49 0 -.91 -.79 -.92 -1.75 -.02 -.96&#xA;-.2 -6.83 -.4 -13.04 -.2 -6.21 .03 -11.54 .52 -11.84 .49 -.3 .07 -1.29 -.91&#xA;-2.21 -2.54 -2.35 -2.62 -3.9 -.31 -6.38 1.11 -1.19 2.01 -2.71 2.01 -3.39 0&#xA;-.68 .35 -1.38 .79 -1.56 .43 -.18 .55 -9.23 .25 -20.11 -.45 -16.64 -.74&#xA;-19.45 -1.82 -17.71z" fill="#f7c0cb" fill-rule="evenodd" stroke="none" class="lit g1"/>
<path d="M1723.36 3447.49 c.35 .92 .64 2.54 .64 3.6 0 2.1 2.88 2.63 4.66 .86 .59&#xA;-.59 6.2 -1.16 12.78 -1.29 10.17 -.2 11.84 -0 12.64 1.48 .69 1.29 .61 1.84&#xA;-.33 2.25 -.68 .3 .11 .45 1.76 .33 1.65 -.12 2.89 -.56 2.75 -.97 -.14 -.41&#xA;-.25 -2.02 -.25 -3.58 0 -2.53 -.34 -2.82 -3.25 -2.78 -1.79 .03 -9.73 -.32&#xA;-17.64 -.77 -13.26 -.76 -14.34 -.69 -13.75 .86z" fill="#edbac5" fill-rule="evenodd" stroke="none" class="lit g2"/>
<path d="M226.69 3500.5 c-.86 11.69 -.91 80.93 -.08 107 .37 11.51 .99 18.43 1.73&#xA;19.19 .63 .65 5.54 1.5 10.9 1.89 10.09 .73 11.22 .29 8.87 -3.41 -1.32 -2.08&#xA;-5.69 -1.07 -5.3 1.23 .28 1.64 -.11 1.8 -2.95 1.23 -4.12 -.82 -5.52 -2.81&#xA;-2.85 -4.03 1.09 -.5 1.97 -1.76 1.97 -2.81 0 -1.19 -.44 -1.64 -1.15 -1.19&#xA;l-1.15 .71 .72 -1.17 c.4 -.64 1.1 -.94 1.57 -.65 1.17 .73 1.86 -1.72 .83&#xA;-2.97 -.46 -.56 -2.07 -2.82 -3.58 -5.02 l-2.74 -4 -.52 -48.5 -.52 -48.5&#xA;-.45 46.5 c-.25 25.57 -.34 51.79 -.2 58.25 .2 9.59 -.01 11.75 -1.17 11.75&#xA;-.78 0 -1.74 -.79 -2.14 -1.75 -.4 -.96 -.96 -26.86 -1.25 -57.56 l-.53&#xA;-55.81 2.18 -.57 c2 -.52 2.16 -1.11 1.89 -6.95 -.16 -3.51 -.74 -6.36 -1.29&#xA;-6.33 -.55 .03 -1.24 -1.43 -1.54 -3.24 -.35 -2.14 -.79 .22 -1.27 6.71z" fill="#f8c5c4" fill-rule="evenodd" stroke="none" class="lit g3"/>
<path d="M1954.96 3638.25 c-.25 10.86 -.15 19.75 .23 19.75 .38 -0 .83 -1.69 1 -3.75&#xA;l.31 -3.75 6.25 .24 6.25 .24 .01 -3.74 c.01 -2.06 .27 -5.31 .59 -7.24 l.58&#xA;-3.5 -6.84 0 -6.84 0 -.54 -9 c-.43 -7.24 -.63 -5.13 -1 10.75z" fill="#e9c3c7" fill-rule="evenodd" stroke="none" class="lit g4"/>
<path d="M1168.46 3689.4 c-3.13 2.29 -.94 6.54 5.06 9.82 l4.98 2.73 -3.5 .02 c-1.92&#xA;.01 -4.96 -.87 -6.75 -1.96 -2.35 -1.43 -3.25 -1.62 -3.25 -.67 0 2.4 4.38&#xA;3.53 15.5 3.99 6.05 .25 9.54 .25 7.75 -0 -2.39 -.34 -3.25 -.97 -3.25 -2.4 0&#xA;-1.07 -.48 -1.94 -1.07 -1.94 -.59 0 -1.82 -.75 -2.74 -1.67 -1.56 -1.56&#xA;-1.49 -1.62 1.07 -.98 1.91 .48 2.74 .3 2.76 -.58 .01 -1.03 .18 -1.01 .88 .1&#xA;.7 1.11 1.09 1.01 2.01 -.5 1 -1.63 1.12 -1.68 1 -.37 -.27 2.8 .09 4 1.2 4&#xA;.61 0 .85 -.68 .53 -1.5 -.64 -1.68 1.86 -2.12 2.86 -.5 .93 1.5 3.61 1.21&#xA;5.62 -.61 1.66 -1.5 1.83 -1.43 2.44 1 .45 1.81 1.32 2.61 2.8 2.6 3.78 -.02&#xA;6.52 -1.14 6.02 -2.45 -.27 -.7 .44 -1.51 1.57 -1.81 1.43 -.37 1.89 -.26 1.5&#xA;.37 -.31 .5 .11 .91 .94 .91 1.98 0 2.97 -1.69 1.37 -2.34 -.69 -.28 .17 -.54&#xA;1.91 -.59 1.74 -.04 3.39 -.64 3.67 -1.33 .39 -.97 .69 -1 1.33 -.15 .45 .6&#xA;1.84 1.02 3.08 .92 1.34 -.11 2.25 .38 2.25 1.21 0 .77 .42 1.13 .93 .82 .51&#xA;-.32 1.13 .67 1.38 2.19 .25 1.52 .39 .52 .32 -2.23 -.12 -4.46 -.39 -5.04&#xA;-2.52 -5.34 -1.31 -.19 -2.77 .26 -3.23 1 -.64 1 -.85 1.05 -.86 .2 -.02&#xA;-1.61 -4.92 -2.68 -6.45 -1.41 -.69 .57 -1.47 .81 -1.74 .54 -1.36 -1.36&#xA;-31.82 -2.77 -31.82 -1.47 0 1.22 2.6 1.89 5.15 1.32 .99 -.22 1.46 -.29 1.38&#xA;-.13 -.08 .16 -.72 .54 -1.95 1.23 -2.31 1.28 -3.07 1.39 -3.62 .49 -.53 -.86&#xA;-.88 -.85 -1.42 .03 -.51 .82 -1.13 .63 -2.11 -.64 -1.05 -1.37 -1.59 -1.51&#xA;-2.21 -.57 -.63 .96 -1.72 .79 -4.73 -.75 -2.32 -1.18 -3.25 -1.75 -3.88&#xA;-1.81 -.64 -.06 -.98 .38 -2.14 1.22z" fill="#f3b6d4" fill-rule="evenodd" stroke="none" class="lit g0"/>
<path d="M3498.25 3763.74 c-2.17 .74 -1.35 2.1 .91 1.51 1.48 -.39 1.93 -.2 1.44 .59&#xA;-.39 .64 -1.37 1.16 -2.18 1.16 -.8 0 -1.95 1.24 -2.55 2.75 -.6 1.51 -1.53&#xA;3.6 -2.07 4.63 -1.84 3.53 3.51 4.26 10.94 1.5 1.23 -.46 2.89 -.58 3.67 -.28&#xA;.82 .31 1.89 -.31 2.51 -1.46 1.01 -1.89 .79 -1.99 -3.84 -1.8 -2.7 .11 -4.67&#xA;-.19 -4.37 -.68 .35 -.56 -.23 -.64 -1.58 -.21 -2.35 .75 -2.81 -.38 -.93&#xA;-2.26 1.55 -1.55 4.15 -1.58 3.19 -.03 -.61 .99 -.43 1.04 1.19 .32 1.05 -.47&#xA;3.15 -.83 4.66 -.81 3.05 .04 3.82 -2.25 1 -2.99 -.81 -.21 -1.22 -.33 -1.24&#xA;-.41 -.02 -.08 .36 -.11 1.12 -.17 .9 -.06 2.19 .56 2.87 1.38 1.3 1.57 4&#xA;2.06 4 .73 0 -.42 -1.47 -1.56 -3.27 -2.53 -3.03 -1.63 -11.9 -2.18 -15.48&#xA;-.96z" fill="#ebc2c6" fill-rule="evenodd" stroke="none" class="lit g1"/>
<path d="M3841.96 3804.08 c-4.64 2.24 -8.75 4.58 -9.13 5.19 -.38 .61 -.87 -.66 -1.09&#xA;-2.83 -.22 -2.17 -.48 2.07 -.57 9.41 l-.17 13.36 9.25 -.68 c10.81 -.79&#xA;12.89 -1.26 12.57 -2.86 -.13 -.65 .39 -2.3 1.16 -3.67 .77 -1.38 1.89 -6.89&#xA;2.48 -12.25 l1.08 -9.75 -3.58 0 c-2.14 0 -6.97 1.64 -12.01 4.08z" fill="#f4d6c3" fill-rule="evenodd" stroke="none" class="lit g2"/>
<path d="M3296.31 3831.31 c-.94 1.53 -1.18 6.25 -1.33 26.19 -.08 11 .17 20.8 .55&#xA;21.78 .39 .98 1.62 2.27 2.73 2.87 1.7 .91 1.93 .83 1.41 -.53 -.4 -1.04 -.09&#xA;-1.62 .85 -1.62 .81 0 1.47 -.44 1.47 -.97 0 -.62 .5 -.78 1.41 -.43 .83 .32&#xA;1.61 -.21 1.89 -1.28 .48 -1.82 .48 -1.82 1.2 .43 .8 2.49 2.45 2.89 4.29&#xA;1.05 .66 -.66 1.2 -.84 1.2 -.39 0 .45 .87 -.25 1.93 -1.55 2.1 -2.57 2.28&#xA;-.84 .29 2.78 -.97 1.76 -.94 2.35 .18 3.28 1.08 .89 1.5 .61 1.99 -1.36 .83&#xA;-3.3 3.48 -2.38 2.84 .99 -.48 2.52 1.16 3.46 2.04 1.17 .95 -2.47 .74 -25.24&#xA;-.25 -26.72 -.89 -1.33 -1.01 -1.33 -1.13 0 -.07 .82 -.08 1.84 -.02 2.25 .23&#xA;1.46 -2.68 .72 -3.27 -.83 -.93 -2.42 -.77 -3.63 .39 -2.92 .7 .43 1 .3 1&#xA;-.44 0 -.58 -1.12 -1.06 -2.5 -1.06 -1.38 0 -2.5 -.53 -2.5 -1.17 0 -.89 .16&#xA;-1.01 .67 -.5 .37 .37 1.77 -.05 3.12 -.94 1.35 -.88 2.15 -1.11 1.77 -.5&#xA;-.93 1.51 .55 1.33 2.75 -.33 1.23 -.93 1.45 -1.59 .68 -2.07 -.62 -.38 -.89&#xA;-1.33 -.59 -2.1 .35 -.92 -.16 -1.4 -1.49 -1.4 -1.28 0 -1.76 .43 -1.31 1.15&#xA;.64 1.04 .58 1.07 -.62 .33 -1.04 -.64 -.85 -1.15 .85 -2.28 2.2 -1.46 3.05&#xA;-5.21 1.18 -5.21 -.55 0 -1 -.47 -1 -1.04 0 -.57 .78 -.91 1.73 -.75 1.19 .2&#xA;1.77 -.41 1.86 -1.96 .08 -1.34 -.44 -2.25 -1.29 -2.25 -.78 0 -1.14 -.45 -.8&#xA;-1 .43 -.7 .3 -1 -.44 -1 -.58 0 -1.06 .45 -1.06 1 0 .55 -.48 1 -1.06 1 -.75&#xA;0 -.88 -.3 -.44 -1 .37 -.59 -.93 -1.05 -3.19 -1.13 -11.87 -.42 -17.56 -.28&#xA;-18 .44z" fill="#f3b5d1" fill-rule="evenodd" stroke="none" class="lit g3"/>
<path d="M3831.85 3848.5 c-.85 1.42 -2.13 50.66 -1.36 52.63 .51 1.32 1.34 1.48 4.32&#xA;.83 7.44 -1.62 17.51 -1.44 20.94 .38 1.79 .94 3.25 1.41 3.25 1.04 0 -.37&#xA;.89 .35 1.97 1.6 1.09 1.25 2.49 4.92 3.13 8.15 .64 3.23 1.34 5.88 1.57 5.88&#xA;.23 0 1.29 -.82 2.37 -1.82 1.82 -1.69 2 -3.77 2.6 -29.25 .64 -27.3 .1&#xA;-35.77 -1.01 -16.11 -.59 10.36 -2.22 18.18 -3.78 18.18 -.46 0 -.9 -.79 -.97&#xA;-1.75 -.33 -4.57 -.65 -6.36 -1.24 -6.95 -.35 -.35 -.64 .11 -.64 1.03 0 1.88&#xA;-1.63 2.27 -2.21 .52 -.21 -.63 -1.55 -1.27 -2.97 -1.42 -2.18 -.23 -2.69 .21&#xA;-3.2 2.77 -.33 1.67 -.61 4 -.61 5.17 -0 1.17 -.44 3.7 -.98 5.62 -.53 1.9&#xA;-.71 2.83 -2.3 3.35 -1.59 .52 -4.58 .63 -10.72 .91 -5.37 .24 -5.54 .16&#xA;-7.32 -3.25 -1.49 -2.86 -1.73 -5.05 -1.32 -12 .27 -4.68 .78 -9.23 1.13&#xA;-10.11 .35 -.89 3.02 -2.79 5.95 -4.22 5.63 -2.76 6.53 -4.25 6.56 -10.86 .01&#xA;-2.03 .56 -4.03 1.23 -4.44 1.28 -.79 -6.94 -3.31 -10.89 -3.35 -1.26 -.01&#xA;-2.32 -.75 -2.52 -1.77 -.19 -.96 -.62 -1.3 -.95 -.75z" fill="#edbec9" fill-rule="evenodd" stroke="none" class="lit g4"/>
</g>
</svg>