<svg viewBox="-6.0 -10.0 110.0 122.0" xmlns="http://www.w3.org/2000/svg"><path d="M 85.69,59.73 L 95.91,61.26 L 95.91,66.74 L 85.69,68.27 L 83.29,76.46 L 91.05,83.27 L 88.09,87.88 L 78.67,83.65 L 72.22,89.24 L 75.07,99.16 L 70.09,101.44 L 64.45,92.78 L 56.00,94.00 L 53.03,103.89 L 47.61,103.11 L 47.55,92.78 L 39.78,89.24 L 31.94,95.95 L 27.80,92.36 L 33.33,83.65 L 28.71,76.46 L 18.48,77.87 L 16.94,72.61 L 26.31,68.27 L 26.31,59.73 L 16.94,55.39 L 18.48,50.13 L 28.71,51.54 L 33.33,44.35 L 27.80,35.64 L 31.94,32.05 L 39.78,38.76 L 47.55,35.22 L 47.61,24.89 L 53.03,24.11 L 56.00,34.00 L 64.45,35.22 L 70.09,26.56 L 75.07,28.84 L 72.22,38.76 L 78.67,44.35 L 88.09,40.12 L 91.05,44.73 L 83.29,51.54 Z M 68.99,71.50 L 56.00,79.00 L 43.01,71.50 L 43.01,56.50 L 56.00,49.00 L 68.99,56.50 Z" fill="#1f3a31" fill-rule="evenodd" stroke="#1f3a31" stroke-width="11" stroke-linejoin="round" stroke-linecap="round"/><path d="M 35.71,15.16 L 41.90,15.96 L 41.90,20.04 L 35.71,20.84 L 33.70,25.69 L 37.51,30.63 L 34.63,33.51 L 29.69,29.70 L 24.84,31.71 L 24.04,37.90 L 19.96,37.90 L 19.16,31.71 L 14.31,29.70 L 9.37,33.51 L 6.49,30.63 L 10.30,25.69 L 8.29,20.84 L 2.10,20.04 L 2.10,15.96 L 8.29,15.16 L 10.30,10.31 L 6.49,5.37 L 9.37,2.49 L 14.31,6.30 L 19.16,4.29 L 19.96,-1.90 L 24.04,-1.90 L 24.84,4.29 L 29.69,6.30 L 34.63,2.49 L 37.51,5.37 L 33.70,10.31 Z M 14.5,18 a 7.5,7.5 0 1,0 15,0 a 7.5,7.5 0 1,0 -15,0" fill="#1f3a31" fill-rule="evenodd" stroke="#1f3a31" stroke-width="8" stroke-linejoin="round" stroke-linecap="round"/></svg>